<svg width="1440" height="1024" viewBox="0 0 1440 1024" fill="none" xmlns="http://www.w3.org/2000/svg">
<rect width="1440" height="1024" rx="41" fill="#BAADFF"/>
<path d="M529.516 453.32C526.876 453.32 524.596 452.72 522.676 451.52C520.756 450.293 519.276 448.653 518.236 446.6C517.223 444.547 516.716 442.267 516.716 439.76C516.716 437.253 517.223 434.973 518.236 432.92C519.276 430.867 520.756 429.24 522.676 428.04C524.596 426.813 526.876 426.2 529.516 426.2C531.516 426.2 533.316 426.56 534.916 427.28C536.516 427.973 537.876 428.933 538.996 430.16C540.116 431.387 540.956 432.813 541.516 434.44H538.356C537.69 432.813 536.636 431.52 535.196 430.56C533.756 429.6 531.943 429.12 529.756 429.12C527.623 429.12 525.796 429.6 524.276 430.56C522.783 431.493 521.65 432.76 520.876 434.36C520.103 435.96 519.716 437.76 519.716 439.76C519.716 441.733 520.103 443.533 520.876 445.16C521.65 446.76 522.783 448.04 524.276 449C525.796 449.933 527.623 450.4 529.756 450.4C531.943 450.4 533.756 449.92 535.196 448.96C536.636 448 537.69 446.707 538.356 445.08H541.516C540.956 446.68 540.116 448.107 538.996 449.36C537.876 450.587 536.516 451.56 534.916 452.28C533.316 452.973 531.516 453.32 529.516 453.32ZM545.373 453V425H548.373V453H545.373ZM562.017 453.32C560.07 453.32 558.363 452.867 556.897 451.96C555.457 451.027 554.337 449.773 553.537 448.2C552.737 446.627 552.337 444.893 552.337 443C552.337 441.08 552.737 439.347 553.537 437.8C554.337 436.227 555.457 434.987 556.897 434.08C558.363 433.147 560.07 432.68 562.017 432.68C563.67 432.68 565.083 433 566.257 433.64C567.457 434.28 568.43 435.147 569.177 436.24V433H572.177V453H569.177V449.8C568.43 450.867 567.457 451.72 566.257 452.36C565.083 453 563.67 453.32 562.017 453.32ZM562.417 450.6C563.91 450.6 565.163 450.253 566.177 449.56C567.217 448.867 568.003 447.947 568.537 446.8C569.07 445.627 569.337 444.36 569.337 443C569.337 441.613 569.07 440.347 568.537 439.2C568.003 438.053 567.217 437.133 566.177 436.44C565.163 435.747 563.91 435.4 562.417 435.4C560.95 435.4 559.683 435.747 558.617 436.44C557.55 437.133 556.737 438.053 556.177 439.2C555.617 440.347 555.337 441.613 555.337 443C555.337 444.36 555.617 445.627 556.177 446.8C556.737 447.947 557.55 448.867 558.617 449.56C559.683 450.253 560.95 450.6 562.417 450.6ZM577.366 453V433H580.366V437.92C580.472 437.573 580.672 437.12 580.966 436.56C581.286 435.973 581.739 435.387 582.326 434.8C582.912 434.213 583.646 433.72 584.526 433.32C585.432 432.893 586.499 432.68 587.726 432.68H587.926V435.68H587.566C586.072 435.68 584.779 436.093 583.686 436.92C582.619 437.72 581.792 438.773 581.206 440.08C580.646 441.36 580.366 442.733 580.366 444.2V453H577.366ZM591.035 429.64V425.72H594.275V429.64H591.035ZM591.155 453V433H594.155V453H591.155ZM601.518 453V435.64H597.438V433H601.518V425.84H604.518V433H609.118V435.64H604.518V453H601.518ZM614.485 460.92L618.125 452.72L609.965 433H613.285L619.725 449.4L626.285 433H629.565L617.725 460.92H614.485ZM640.683 429.64V425.72H643.923V429.64H640.683ZM640.803 453V433H643.803V453H640.803ZM656.286 453.32C654.446 453.32 652.886 453.013 651.606 452.4C650.353 451.787 649.393 450.987 648.726 450C648.06 448.987 647.686 447.893 647.606 446.72H650.726C650.806 447.387 651.033 448.04 651.406 448.68C651.806 449.293 652.406 449.8 653.206 450.2C654.006 450.573 655.046 450.76 656.326 450.76C656.726 450.76 657.22 450.72 657.806 450.64C658.393 450.56 658.953 450.413 659.486 450.2C660.046 449.987 660.513 449.667 660.886 449.24C661.26 448.813 661.446 448.267 661.446 447.6C661.446 446.773 661.126 446.133 660.486 445.68C659.846 445.227 659.02 444.88 658.006 444.64C656.993 444.373 655.913 444.12 654.766 443.88C653.646 443.64 652.58 443.333 651.566 442.96C650.553 442.56 649.726 442.013 649.086 441.32C648.446 440.6 648.126 439.627 648.126 438.4C648.126 436.587 648.78 435.187 650.086 434.2C651.42 433.187 653.38 432.68 655.966 432.68C657.726 432.68 659.153 432.96 660.246 433.52C661.366 434.053 662.206 434.747 662.766 435.6C663.353 436.453 663.7 437.373 663.806 438.36H660.766C660.66 437.507 660.233 436.773 659.486 436.16C658.766 435.547 657.566 435.24 655.886 435.24C652.713 435.24 651.126 436.2 651.126 438.12C651.126 438.92 651.446 439.533 652.086 439.96C652.726 440.387 653.553 440.733 654.566 441C655.58 441.24 656.646 441.48 657.766 441.72C658.913 441.933 659.993 442.24 661.006 442.64C662.02 443.04 662.846 443.613 663.486 444.36C664.126 445.08 664.446 446.067 664.446 447.32C664.446 449.267 663.7 450.76 662.206 451.8C660.74 452.813 658.766 453.32 656.286 453.32ZM685.259 453.32C683.312 453.32 681.605 452.867 680.139 451.96C678.699 451.027 677.579 449.773 676.779 448.2C675.979 446.627 675.579 444.893 675.579 443C675.579 441.08 675.979 439.347 676.779 437.8C677.579 436.227 678.699 434.987 680.139 434.08C681.605 433.147 683.312 432.68 685.259 432.68C686.912 432.68 688.325 433 689.499 433.64C690.699 434.28 691.672 435.147 692.419 436.24V433H695.419V453H692.419V449.8C691.672 450.867 690.699 451.72 689.499 452.36C688.325 453 686.912 453.32 685.259 453.32ZM685.659 450.6C687.152 450.6 688.405 450.253 689.419 449.56C690.459 448.867 691.245 447.947 691.779 446.8C692.312 445.627 692.579 444.36 692.579 443C692.579 441.613 692.312 440.347 691.779 439.2C691.245 438.053 690.459 437.133 689.419 436.44C688.405 435.747 687.152 435.4 685.659 435.4C684.192 435.4 682.925 435.747 681.859 436.44C680.792 437.133 679.979 438.053 679.419 439.2C678.859 440.347 678.579 441.613 678.579 443C678.579 444.36 678.859 445.627 679.419 446.8C679.979 447.947 680.792 448.867 681.859 449.56C682.925 450.253 684.192 450.6 685.659 450.6ZM717.723 453.32C715.723 453.32 713.99 452.867 712.523 451.96C711.057 451.027 709.91 449.773 709.083 448.2C708.283 446.627 707.883 444.893 707.883 443C707.883 441.08 708.283 439.347 709.083 437.8C709.91 436.227 711.057 434.987 712.523 434.08C713.99 433.147 715.723 432.68 717.723 432.68C720.097 432.68 722.11 433.293 723.763 434.52C725.443 435.747 726.577 437.333 727.163 439.28H723.923C723.47 438.133 722.737 437.2 721.723 436.48C720.737 435.76 719.537 435.4 718.123 435.4C716.657 435.4 715.377 435.747 714.283 436.44C713.19 437.133 712.35 438.053 711.763 439.2C711.177 440.347 710.883 441.613 710.883 443C710.883 444.36 711.177 445.627 711.763 446.8C712.35 447.947 713.19 448.867 714.283 449.56C715.377 450.253 716.657 450.6 718.123 450.6C719.537 450.6 720.737 450.24 721.723 449.52C722.737 448.8 723.47 447.867 723.923 446.72H727.163C726.577 448.667 725.443 450.253 723.763 451.48C722.11 452.707 720.097 453.32 717.723 453.32ZM730.881 453V433H733.881V437.92C733.988 437.573 734.188 437.12 734.481 436.56C734.801 435.973 735.255 435.387 735.841 434.8C736.428 434.213 737.161 433.72 738.041 433.32C738.948 432.893 740.015 432.68 741.241 432.68H741.441V435.68H741.081C739.588 435.68 738.295 436.093 737.201 436.92C736.135 437.72 735.308 438.773 734.721 440.08C734.161 441.36 733.881 442.733 733.881 444.2V453H730.881ZM753.043 453.32C751.016 453.32 749.243 452.867 747.723 451.96C746.203 451.027 745.016 449.773 744.163 448.2C743.336 446.627 742.923 444.893 742.923 443C742.923 441.08 743.323 439.347 744.123 437.8C744.923 436.227 746.069 434.987 747.563 434.08C749.056 433.147 750.816 432.68 752.843 432.68C754.896 432.68 756.656 433.147 758.123 434.08C759.616 434.987 760.763 436.227 761.562 437.8C762.363 439.347 762.763 441.08 762.763 443V444.2H746.003C746.163 445.373 746.536 446.453 747.123 447.44C747.736 448.4 748.549 449.173 749.563 449.76C750.576 450.32 751.749 450.6 753.083 450.6C754.496 450.6 755.683 450.293 756.643 449.68C757.603 449.04 758.349 448.227 758.883 447.24H762.163C761.469 449.027 760.363 450.493 758.843 451.64C757.349 452.76 755.416 453.32 753.043 453.32ZM746.043 441.4H759.643C759.376 439.693 758.656 438.267 757.483 437.12C756.309 435.973 754.763 435.4 752.843 435.4C750.923 435.4 749.376 435.973 748.203 437.12C747.056 438.267 746.336 439.693 746.043 441.4ZM774.868 453.32C772.921 453.32 771.215 452.867 769.748 451.96C768.308 451.027 767.188 449.773 766.388 448.2C765.588 446.627 765.188 444.893 765.188 443C765.188 441.08 765.588 439.347 766.388 437.8C767.188 436.227 768.308 434.987 769.748 434.08C771.215 433.147 772.921 432.68 774.868 432.68C776.521 432.68 777.935 433 779.108 433.64C780.308 434.28 781.281 435.147 782.028 436.24V433H785.028V453H782.028V449.8C781.281 450.867 780.308 451.72 779.108 452.36C777.935 453 776.521 453.32 774.868 453.32ZM775.268 450.6C776.761 450.6 778.015 450.253 779.028 449.56C780.068 448.867 780.855 447.947 781.388 446.8C781.921 445.627 782.188 444.36 782.188 443C782.188 441.613 781.921 440.347 781.388 439.2C780.855 438.053 780.068 437.133 779.028 436.44C778.015 435.747 776.761 435.4 775.268 435.4C773.801 435.4 772.535 435.747 771.468 436.44C770.401 437.133 769.588 438.053 769.028 439.2C768.468 440.347 768.188 441.613 768.188 443C768.188 444.36 768.468 445.627 769.028 446.8C769.588 447.947 770.401 448.867 771.468 449.56C772.535 450.253 773.801 450.6 775.268 450.6ZM792.377 453V435.64H788.297V433H792.377V425.84H795.377V433H799.977V435.64H795.377V453H792.377ZM803.144 429.64V425.72H806.384V429.64H803.144ZM803.264 453V433H806.264V453H803.264ZM816.907 453L809.067 433H812.347L818.667 449.8L824.947 433H828.227L820.427 453H816.907ZM839.527 453.32C837.5 453.32 835.727 452.867 834.207 451.96C832.687 451.027 831.5 449.773 830.647 448.2C829.82 446.627 829.407 444.893 829.407 443C829.407 441.08 829.807 439.347 830.607 437.8C831.407 436.227 832.554 434.987 834.047 434.08C835.54 433.147 837.3 432.68 839.327 432.68C841.38 432.68 843.14 433.147 844.607 434.08C846.1 434.987 847.247 436.227 848.047 437.8C848.847 439.347 849.247 441.08 849.247 443V444.2H832.487C832.647 445.373 833.02 446.453 833.607 447.44C834.22 448.4 835.034 449.173 836.047 449.76C837.06 450.32 838.234 450.6 839.567 450.6C840.98 450.6 842.167 450.293 843.127 449.68C844.087 449.04 844.834 448.227 845.367 447.24H848.647C847.954 449.027 846.847 450.493 845.327 451.64C843.834 452.76 841.9 453.32 839.527 453.32ZM832.527 441.4H846.127C845.86 439.693 845.14 438.267 843.967 437.12C842.794 435.973 841.247 435.4 839.327 435.4C837.407 435.4 835.86 435.973 834.687 437.12C833.54 438.267 832.82 439.693 832.527 441.4ZM869.868 453.32C867.921 453.32 866.215 452.867 864.748 451.96C863.308 451.027 862.188 449.773 861.388 448.2C860.588 446.627 860.188 444.893 860.188 443C860.188 441.08 860.588 439.347 861.388 437.8C862.188 436.227 863.308 434.987 864.748 434.08C866.215 433.147 867.921 432.68 869.868 432.68C871.521 432.68 872.935 433 874.108 433.64C875.308 434.28 876.281 435.147 877.028 436.24V433H880.028V453H877.028V449.8C876.281 450.867 875.308 451.72 874.108 452.36C872.935 453 871.521 453.32 869.868 453.32ZM870.268 450.6C871.761 450.6 873.015 450.253 874.028 449.56C875.068 448.867 875.855 447.947 876.388 446.8C876.921 445.627 877.188 444.36 877.188 443C877.188 441.613 876.921 440.347 876.388 439.2C875.855 438.053 875.068 437.133 874.028 436.44C873.015 435.747 871.761 435.4 870.268 435.4C868.801 435.4 867.535 435.747 866.468 436.44C865.401 437.133 864.588 438.053 864.028 439.2C863.468 440.347 863.188 441.613 863.188 443C863.188 444.36 863.468 445.627 864.028 446.8C864.588 447.947 865.401 448.867 866.468 449.56C867.535 450.253 868.801 450.6 870.268 450.6ZM893.817 453.32C891.817 453.32 890.084 452.867 888.617 451.96C887.151 451.027 886.004 449.773 885.177 448.2C884.377 446.627 883.977 444.893 883.977 443C883.977 441.08 884.377 439.347 885.177 437.8C886.004 436.227 887.151 434.987 888.617 434.08C890.084 433.147 891.817 432.68 893.817 432.68C896.191 432.68 898.204 433.293 899.857 434.52C901.537 435.747 902.671 437.333 903.257 439.28H900.017C899.564 438.133 898.831 437.2 897.817 436.48C896.831 435.76 895.631 435.4 894.217 435.4C892.751 435.4 891.471 435.747 890.377 436.44C889.284 437.133 888.444 438.053 887.857 439.2C887.271 440.347 886.977 441.613 886.977 443C886.977 444.36 887.271 445.627 887.857 446.8C888.444 447.947 889.284 448.867 890.377 449.56C891.471 450.253 892.751 450.6 894.217 450.6C895.631 450.6 896.831 450.24 897.817 449.52C898.831 448.8 899.564 447.867 900.017 446.72H903.257C902.671 448.667 901.537 450.253 899.857 451.48C898.204 452.707 896.191 453.32 893.817 453.32ZM909.135 453V435.64H905.055V433H909.135V425.84H912.135V433H916.735V435.64H912.135V453H909.135ZM918.839 453V448.92H922.719V453H918.839Z" fill="white"/>
<path d="M563.994 506.048C563.994 511.083 562.586 515.733 559.77 520C556.954 524.267 552.303 527.509 545.818 529.728L560.666 568H532.122L520.858 532.544H519.45L511.898 568H484.25L501.53 486.72H535.194C539.119 486.72 542.831 486.976 546.33 487.488C549.829 487.915 552.858 488.853 555.418 490.304C558.063 491.669 560.154 493.632 561.69 496.192C563.226 498.667 563.994 501.952 563.994 506.048ZM527.13 524.352C529.349 524.352 531.226 523.627 532.762 522.176C534.383 520.64 535.663 518.805 536.602 516.672C537.626 514.539 538.351 512.277 538.778 509.888C539.205 507.413 539.418 505.28 539.418 503.488C539.418 501.269 539.034 499.392 538.266 497.856C537.498 496.235 535.834 495.424 533.274 495.424H527.514L521.114 524.352H527.13ZM590.904 542.272C590.563 544.149 590.307 545.941 590.136 547.648C590.051 549.355 590.008 550.891 590.008 552.256C590.008 553.024 590.051 553.877 590.136 554.816C590.221 555.755 590.392 556.651 590.648 557.504C590.989 558.272 591.416 558.955 591.928 559.552C592.525 560.064 593.336 560.32 594.36 560.32C595.128 560.32 595.981 560.064 596.92 559.552C597.944 559.04 598.925 558.315 599.864 557.376C600.888 556.437 601.827 555.285 602.68 553.92C603.619 552.555 604.344 551.019 604.856 549.312H625.848L622.52 563.008C620.813 564.117 618.851 565.056 616.632 565.824C614.413 566.592 612.067 567.232 609.592 567.744C607.117 568.171 604.6 568.469 602.04 568.64C599.48 568.896 597.048 569.024 594.744 569.024C590.477 569.024 586.509 568.64 582.84 567.872C579.171 567.104 575.971 565.781 573.24 563.904C570.509 562.027 568.333 559.552 566.712 556.48C565.176 553.323 564.408 549.44 564.408 544.832C564.408 540.651 565.048 536.555 566.328 532.544C567.693 528.533 569.912 524.992 572.984 521.92C576.141 518.763 580.323 516.245 585.528 514.368C590.819 512.491 597.389 511.552 605.24 511.552C613.773 511.552 620.173 512.875 624.44 515.52C628.792 518.165 630.968 522.304 630.968 527.936C630.968 530.24 630.627 532.757 629.944 535.488C629.261 538.133 628.237 540.395 626.872 542.272H590.904ZM607.928 527.04C607.928 524.395 607.501 522.603 606.648 521.664C605.795 520.725 604.771 520.256 603.576 520.256C602.211 520.256 600.931 520.725 599.736 521.664C598.627 522.517 597.603 523.712 596.664 525.248C595.725 526.699 594.872 528.405 594.104 530.368C593.336 532.245 592.696 534.251 592.184 536.384H606.776C606.947 535.36 607.117 534.293 607.288 533.184C607.459 532.245 607.587 531.221 607.672 530.112C607.843 529.003 607.928 527.979 607.928 527.04ZM642.216 517.696C646.568 515.563 651.005 514.027 655.528 513.088C660.136 512.064 665.256 511.552 670.888 511.552C676.349 511.552 680.872 511.979 684.456 512.832C688.04 513.685 690.899 514.923 693.032 516.544C695.165 518.165 696.659 520.085 697.512 522.304C698.365 524.523 698.792 527.04 698.792 529.856C698.792 531.477 698.664 533.227 698.408 535.104C698.237 536.981 698.024 538.56 697.768 539.84L691.752 568H671.144L668.84 559.808H668.072C665.341 562.795 662.141 565.099 658.472 566.72C654.888 568.256 651.304 569.024 647.72 569.024C645.672 569.024 643.667 568.725 641.704 568.128C639.741 567.531 637.992 566.635 636.456 565.44C634.92 564.16 633.683 562.581 632.744 560.704C631.805 558.741 631.336 556.395 631.336 553.664C631.336 549.227 632.531 545.728 634.92 543.168C637.395 540.523 640.595 538.56 644.52 537.28C648.531 535.915 653.011 535.061 657.96 534.72C662.995 534.379 668.029 534.208 673.064 534.208C673.235 533.355 673.448 532.16 673.704 530.624C673.96 529.003 674.088 527.595 674.088 526.4C674.088 524.864 673.661 523.456 672.808 522.176C672.04 520.811 670.376 520.128 667.816 520.128C664.829 520.128 662.611 521.024 661.16 522.816C659.795 524.523 658.899 526.613 658.472 529.088H639.784L642.216 517.696ZM671.656 540.224H669.352C666.877 540.224 664.744 540.565 662.952 541.248C661.245 541.845 659.837 542.656 658.728 543.68C657.704 544.704 656.936 545.856 656.424 547.136C655.912 548.416 655.656 549.696 655.656 550.976C655.656 553.024 656.168 554.56 657.192 555.584C658.301 556.608 659.581 557.12 661.032 557.12C662.824 557.12 664.573 556.48 666.28 555.2C668.072 553.92 669.181 552.213 669.608 550.08L671.656 540.224ZM742.921 529.088C743.006 528.661 743.092 528.235 743.177 527.808C743.262 527.381 743.305 526.912 743.305 526.4C743.305 524.864 743.006 523.456 742.409 522.176C741.897 520.811 740.83 520.128 739.209 520.128C737.758 520.128 736.308 520.768 734.857 522.048C733.406 523.243 732.681 524.864 732.681 526.912C732.681 528.277 733.022 529.387 733.705 530.24C734.473 531.008 735.454 531.648 736.649 532.16C737.844 532.672 739.166 533.099 740.617 533.44C742.153 533.781 743.646 534.123 745.097 534.464C747.145 534.976 749.065 535.616 750.857 536.384C752.734 537.067 754.398 538.005 755.849 539.2C757.3 540.395 758.452 541.888 759.305 543.68C760.158 545.387 760.585 547.52 760.585 550.08C760.585 553.664 759.732 556.693 758.025 559.168C756.404 561.557 754.1 563.52 751.113 565.056C748.212 566.507 744.756 567.531 740.745 568.128C736.82 568.725 732.596 569.024 728.073 569.024C721.161 569.024 715.444 568.512 710.921 567.488C706.398 566.464 703.241 565.483 701.449 564.544L704.137 551.744H721.417C721.332 552.171 721.289 552.597 721.289 553.024C721.289 553.365 721.289 553.749 721.289 554.176C721.289 556.139 721.716 557.717 722.569 558.912C723.508 560.021 725.086 560.576 727.305 560.576C729.78 560.576 731.529 559.893 732.553 558.528C733.662 557.077 734.217 555.755 734.217 554.56C734.217 553.365 733.748 552.341 732.809 551.488C731.956 550.549 730.846 549.781 729.481 549.184C728.116 548.501 726.58 547.947 724.873 547.52C723.252 547.008 721.673 546.539 720.137 546.112C719.028 545.856 717.748 545.429 716.297 544.832C714.932 544.235 713.609 543.381 712.329 542.272C711.049 541.163 709.982 539.755 709.129 538.048C708.276 536.256 707.849 534.037 707.849 531.392C707.849 527.637 708.745 524.523 710.537 522.048C712.414 519.488 714.804 517.44 717.705 515.904C720.692 514.368 724.02 513.259 727.689 512.576C731.444 511.893 735.198 511.552 738.953 511.552C743.646 511.552 748.084 511.979 752.265 512.832C756.446 513.685 759.86 514.795 762.505 516.16L759.561 529.088H742.921ZM790.704 568H764.72L776.368 512.96H802.608L790.704 568ZM805.936 496.192C805.936 498.155 805.509 499.861 804.656 501.312C803.888 502.763 802.821 504 801.456 505.024C800.176 506.048 798.683 506.816 796.976 507.328C795.269 507.84 793.52 508.096 791.728 508.096C788.315 508.096 785.456 507.285 783.152 505.664C780.848 504.043 779.696 501.483 779.696 497.984C779.696 496.107 780.08 494.443 780.848 492.992C781.616 491.456 782.64 490.219 783.92 489.28C785.285 488.256 786.821 487.488 788.528 486.976C790.32 486.464 792.155 486.208 794.032 486.208C797.36 486.208 800.176 487.019 802.48 488.64C804.784 490.261 805.936 492.779 805.936 496.192ZM829.484 556.736C829.484 558.699 829.057 560.448 828.204 561.984C827.436 563.52 826.369 564.8 825.004 565.824C823.724 566.848 822.231 567.616 820.524 568.128C818.817 568.725 817.025 569.024 815.148 569.024C811.905 569.024 809.132 568.171 806.828 566.464C804.609 564.672 803.5 561.899 803.5 558.144C803.5 556.181 803.884 554.432 804.652 552.896C805.42 551.36 806.444 550.08 807.724 549.056C809.004 548.032 810.455 547.264 812.076 546.752C813.783 546.155 815.532 545.856 817.324 545.856C820.823 545.856 823.724 546.752 826.028 548.544C828.332 550.251 829.484 552.981 829.484 556.736ZM917.089 505.28C917.089 507.755 916.705 509.973 915.937 511.936C915.254 513.899 914.273 515.648 912.993 517.184C911.713 518.72 910.22 520.085 908.513 521.28C906.806 522.475 904.929 523.584 902.881 524.608C903.82 524.949 904.929 525.504 906.209 526.272C907.489 526.955 908.726 527.936 909.921 529.216C911.116 530.496 912.097 532.16 912.865 534.208C913.718 536.171 914.145 538.603 914.145 541.504C914.145 545.344 913.334 548.885 911.713 552.128C910.092 555.371 907.66 558.187 904.417 560.576C901.26 562.88 897.334 564.715 892.641 566.08C888.033 567.36 882.7 568 876.641 568H838.625L855.905 486.72H889.569C892.897 486.72 896.182 486.976 899.425 487.488C902.753 487.915 905.697 488.811 908.257 490.176C910.902 491.541 913.036 493.461 914.657 495.936C916.278 498.325 917.089 501.44 917.089 505.28ZM882.273 520.768C884.15 520.768 885.729 520.213 887.009 519.104C888.374 517.995 889.484 516.629 890.337 515.008C891.19 513.301 891.83 511.509 892.257 509.632C892.684 507.669 892.897 505.92 892.897 504.384C892.897 501.909 892.3 499.819 891.105 498.112C889.996 496.32 888.204 495.424 885.729 495.424H881.889L876.385 520.768H882.273ZM873.057 559.936C875.617 559.936 877.75 559.211 879.457 557.76C881.164 556.309 882.572 554.517 883.681 552.384C884.79 550.251 885.558 548.032 885.985 545.728C886.497 543.339 886.753 541.248 886.753 539.456C886.753 536.469 886.113 534.123 884.833 532.416C883.638 530.624 881.676 529.728 878.945 529.728H874.209L867.937 559.936H873.057ZM942.954 568H916.97L928.618 512.96H954.858L942.954 568ZM958.186 496.192C958.186 498.155 957.759 499.861 956.906 501.312C956.138 502.763 955.071 504 953.706 505.024C952.426 506.048 950.933 506.816 949.226 507.328C947.519 507.84 945.77 508.096 943.978 508.096C940.565 508.096 937.706 507.285 935.402 505.664C933.098 504.043 931.946 501.483 931.946 497.984C931.946 496.107 932.33 494.443 933.098 492.992C933.866 491.456 934.89 490.219 936.17 489.28C937.535 488.256 939.071 487.488 940.778 486.976C942.57 486.464 944.405 486.208 946.282 486.208C949.61 486.208 952.426 487.019 954.73 488.64C957.034 490.261 958.186 492.779 958.186 496.192Z" fill="white"/>
</svg>
