<svg width="1440" height="195" viewBox="0 0 1440 195" fill="none" xmlns="http://www.w3.org/2000/svg">
<g clip-path="url(#clip0_84_55)">
<path d="M101.062 32.22H146.782V177H101.062V32.22ZM242.598 57.62C244.799 57.62 247.085 57.874 249.456 58.382C251.996 58.89 253.859 59.4827 255.044 60.16C255.044 63.8853 254.621 70.066 253.774 78.702C252.927 87.1687 252.165 93.18 251.488 96.736C249.795 96.5667 246.662 96.482 242.09 96.482C231.422 96.482 221.939 97.0747 213.642 98.26V177H170.208V60.16H206.53L211.61 78.956H211.864C216.775 72.5213 222.024 67.3567 227.612 63.462C233.2 59.5673 238.195 57.62 242.598 57.62ZM322.838 180.302C302.518 180.302 287.278 175.561 277.118 166.078C267.127 156.426 262.132 141.271 262.132 120.612C262.132 109.267 263.148 99.3607 265.18 90.894C267.381 82.258 270.006 76.2467 273.054 72.86C276.949 68.4573 284.061 64.8167 294.39 61.938C304.889 59.0593 314.71 57.62 323.854 57.62C345.698 57.62 361.277 62.2767 370.59 71.59C379.903 80.9033 384.56 95.8047 384.56 116.294C384.56 138.307 379.565 154.479 369.574 164.808C359.583 175.137 344.005 180.302 322.838 180.302ZM323.6 150.584C330.204 150.584 334.522 148.298 336.554 143.726C338.586 138.985 339.602 130.687 339.602 118.834C339.602 110.537 339.179 104.187 338.332 99.784C337.485 95.212 335.877 91.91 333.506 89.878C331.305 87.6767 327.833 86.576 323.092 86.576C316.319 86.576 312.424 87.1687 311.408 88.354C310.053 89.5393 308.953 93.2647 308.106 99.53C307.259 105.795 306.836 112.315 306.836 119.088C306.836 130.603 307.937 138.731 310.138 143.472C312.509 148.213 316.996 150.584 323.6 150.584ZM514.17 67.526C515.694 69.3887 516.794 74.0453 517.472 81.496C518.318 88.9467 518.742 100.292 518.742 115.532V177H475.308V116.04V105.626C475.308 100.207 474.884 96.8207 474.038 95.466C472.683 93.7727 469.55 92.926 464.64 92.926C462.269 92.926 460.491 93.0107 459.306 93.18C454.564 93.3493 449.654 94.45 444.574 96.482V177H401.14V60.16H436.446L441.272 79.718C453.464 64.986 468.026 57.62 484.96 57.62C491.056 57.62 496.728 58.4667 501.978 60.16C507.396 61.8533 511.46 64.3087 514.17 67.526ZM633.294 137.376C633.294 152.447 628.468 163.284 618.816 169.888C609.333 176.492 595.786 179.794 578.176 179.794C565.814 179.794 551.59 178.016 535.504 174.46C535.842 171.073 536.604 166.247 537.79 159.982C539.144 153.547 540.245 148.637 541.092 145.25C547.188 146.266 553.961 147.113 561.412 147.79C568.862 148.298 575.212 148.552 580.462 148.552C585.034 148.552 587.828 148.298 588.844 147.79C589.013 147.621 589.182 147.197 589.352 146.52C589.69 145.673 589.86 144.827 589.86 143.98C589.86 140.593 587.743 138.307 583.51 137.122C582.155 136.783 576.99 135.344 568.016 132.804C559.041 130.264 551.675 125.692 545.918 119.088C540.33 112.315 537.536 103.933 537.536 93.942C537.536 88.6927 538.721 82.8507 541.092 76.416C543.462 69.9813 546.002 65.9173 548.712 64.224C550.744 62.8693 555.654 61.5147 563.444 60.16C571.233 58.636 578.43 57.874 585.034 57.874C599.088 57.874 613.228 58.89 627.452 60.922C627.452 63.97 627.028 69.1347 626.182 76.416C625.335 83.528 624.573 88.0153 623.896 89.878C609.502 88.0153 597.903 87.084 589.098 87.084C584.526 87.084 581.562 87.338 580.208 87.846C579.869 88.0153 579.53 88.5233 579.192 89.37C578.853 90.0473 578.684 90.9787 578.684 92.164C578.684 94.5347 579.446 96.228 580.97 97.244C582.494 98.4293 586.473 99.8687 592.908 101.562C600.528 103.763 607.047 106.049 612.466 108.42C618.054 110.791 622.88 114.347 626.944 119.088C631.177 123.829 633.294 129.925 633.294 137.376ZM670.304 45.682C664.547 45.682 659.552 43.7347 655.318 39.84C651.254 35.9453 649.222 31.2887 649.222 25.87C649.222 20.4513 651.254 15.7947 655.318 11.9C659.552 8.00532 664.547 6.05799 670.304 6.05799C676.062 6.05799 680.972 8.00532 685.036 11.9C689.1 15.7947 691.132 20.4513 691.132 25.87C691.132 31.2887 689.1 35.9453 685.036 39.84C680.972 43.7347 676.062 45.682 670.304 45.682ZM648.46 60.16H691.894V177H648.46V60.16ZM829.763 22.822V177H793.949L790.393 157.442C787.006 164.046 782.011 169.295 775.407 173.19C768.803 177.085 761.352 179.032 753.055 179.032C739.847 179.032 729.263 174.291 721.305 164.808C713.515 155.325 709.621 141.101 709.621 122.136C709.621 107.743 711.314 95.8893 714.701 86.576C718.087 77.2627 722.067 70.574 726.639 66.51C729.517 63.97 735.359 61.8533 744.165 60.16C753.139 58.4667 761.098 57.62 768.041 57.62C774.137 57.62 780.402 58.2127 786.837 59.398C786.329 51.27 786.075 46.7827 786.075 45.936V24.6L829.763 22.822ZM772.105 144.996C776.677 144.996 781.418 144.234 786.329 142.71V87.592C781.418 86.9147 775.999 86.576 770.073 86.576C764.993 86.576 761.775 86.9993 760.421 87.846C758.558 89.2007 757.034 93.0953 755.849 99.53C754.833 105.795 754.325 112.399 754.325 119.342C754.325 129.671 755.849 136.529 758.897 139.916C762.114 143.303 766.517 144.996 772.105 144.996ZM921.467 146.52C925.7 146.52 933.574 146.097 945.089 145.25C946.613 145.25 949.407 145.081 953.471 144.742L957.281 170.904C944.242 177 927.309 180.048 906.481 180.048C887.007 180.048 872.021 175.137 861.523 165.316C851.193 155.495 846.029 140.678 846.029 120.866C846.029 110.706 847.299 100.885 849.839 91.402C852.548 81.9193 855.596 75.3153 858.983 71.59C862.539 67.8647 869.143 64.6473 878.795 61.938C888.447 59.2287 898.014 57.874 907.497 57.874C922.737 57.874 934.167 60.5833 941.787 66.002C949.407 71.4207 954.402 78.956 956.773 88.608C959.143 98.0907 960.329 110.875 960.329 126.962C948.814 127.639 937.553 127.978 926.547 127.978H890.479C890.479 133.397 891.579 137.461 893.781 140.17C896.151 142.879 899.453 144.657 903.687 145.504C907.92 146.181 913.847 146.52 921.467 146.52ZM893.019 88.1C892.003 88.608 891.241 90.8093 890.733 94.704C890.225 98.5987 889.886 103.001 889.717 107.912H902.925C910.883 107.912 916.641 107.827 920.197 107.658C920.197 99.53 919.011 93.7727 916.641 90.386C914.439 86.9993 910.545 85.306 904.957 85.306C900.385 85.306 896.405 86.2373 893.019 88.1ZM1070.1 137.376C1070.1 152.447 1065.28 163.284 1055.63 169.888C1046.14 176.492 1032.6 179.794 1014.99 179.794C1002.62 179.794 988.401 178.016 972.314 174.46C972.653 171.073 973.415 166.247 974.6 159.982C975.955 153.547 977.055 148.637 977.902 145.25C983.998 146.266 990.771 147.113 998.222 147.79C1005.67 148.298 1012.02 148.552 1017.27 148.552C1021.84 148.552 1024.64 148.298 1025.65 147.79C1025.82 147.621 1025.99 147.197 1026.16 146.52C1026.5 145.673 1026.67 144.827 1026.67 143.98C1026.67 140.593 1024.55 138.307 1020.32 137.122C1018.97 136.783 1013.8 135.344 1004.83 132.804C995.851 130.264 988.485 125.692 982.728 119.088C977.14 112.315 974.346 103.933 974.346 93.942C974.346 88.6927 975.531 82.8507 977.902 76.416C980.273 69.9813 982.813 65.9173 985.522 64.224C987.554 62.8693 992.465 61.5147 1000.25 60.16C1008.04 58.636 1015.24 57.874 1021.84 57.874C1035.9 57.874 1050.04 58.89 1064.26 60.922C1064.26 63.97 1063.84 69.1347 1062.99 76.416C1062.15 83.528 1061.38 88.0153 1060.71 89.878C1046.31 88.0153 1034.71 87.084 1025.91 87.084C1021.34 87.084 1018.37 87.338 1017.02 87.846C1016.68 88.0153 1016.34 88.5233 1016 89.37C1015.66 90.0473 1015.49 90.9787 1015.49 92.164C1015.49 94.5347 1016.26 96.228 1017.78 97.244C1019.3 98.4293 1023.28 99.8687 1029.72 101.562C1037.34 103.763 1043.86 106.049 1049.28 108.42C1054.86 110.791 1059.69 114.347 1063.75 119.088C1067.99 123.829 1070.1 129.925 1070.1 137.376ZM1108.13 179.032C1101.19 179.032 1095.43 176.746 1090.86 172.174C1086.46 167.602 1084.25 161.421 1084.25 153.632C1084.25 146.859 1086.54 141.186 1091.11 136.614C1095.85 131.873 1101.78 129.502 1108.89 129.502C1115.67 129.502 1121.34 131.873 1125.91 136.614C1130.48 141.186 1132.77 146.859 1132.77 153.632C1132.77 161.421 1130.48 167.602 1125.91 172.174C1121.51 176.746 1115.58 179.032 1108.13 179.032ZM1249.73 100.546C1261.25 101.901 1269.46 105.795 1274.37 112.23C1279.28 118.495 1281.74 126.115 1281.74 135.09C1281.74 140.678 1280.89 146.012 1279.2 151.092C1277.5 156.003 1275.47 160.236 1273.1 163.792C1270.73 167.179 1268.7 169.38 1267 170.396C1260.23 174.799 1239.57 177 1205.03 177H1155.75V32.22H1215.44C1228.99 32.22 1239.91 32.982 1248.21 34.506C1256.67 35.8607 1263.53 39.078 1268.78 44.158C1274.03 49.0687 1276.66 56.604 1276.66 66.764C1276.66 75.5693 1274.45 82.6813 1270.05 88.1C1265.82 93.5187 1259.05 97.244 1249.73 99.276V100.546ZM1229.41 62.954C1227.72 61.2607 1225.69 60.2447 1223.32 59.906C1221.11 59.398 1217.56 59.144 1212.65 59.144C1207.74 59.144 1204.01 59.2287 1201.47 59.398V90.386H1204.01C1204.86 90.386 1208.41 90.386 1214.68 90.386C1220.95 90.386 1225.09 89.9627 1227.13 89.116C1228.65 88.4387 1230 86.6607 1231.19 83.782C1232.54 80.9033 1233.22 77.7707 1233.22 74.384C1233.22 69.304 1231.95 65.494 1229.41 62.954ZM1233.73 147.79C1234.92 146.774 1235.85 144.911 1236.52 142.202C1237.37 139.323 1237.79 136.445 1237.79 133.566C1237.79 130.01 1237.29 126.708 1236.27 123.66C1235.42 120.443 1234.24 118.157 1232.71 116.802C1231.19 115.278 1228.99 114.262 1226.11 113.754C1223.4 113.246 1218.74 112.992 1212.14 112.992C1207.91 112.992 1204.35 113.077 1201.47 113.246V150.076C1209.43 150.245 1216.54 150.161 1222.81 149.822C1229.07 149.314 1232.71 148.637 1233.73 147.79ZM1321.18 45.682C1315.42 45.682 1310.43 43.7347 1306.19 39.84C1302.13 35.9453 1300.1 31.2887 1300.1 25.87C1300.1 20.4513 1302.13 15.7947 1306.19 11.9C1310.43 8.00532 1315.42 6.05799 1321.18 6.05799C1326.94 6.05799 1331.85 8.00532 1335.91 11.9C1339.98 15.7947 1342.01 20.4513 1342.01 25.87C1342.01 31.2887 1339.98 35.9453 1335.91 39.84C1331.85 43.7347 1326.94 45.682 1321.18 45.682ZM1299.34 60.16H1342.77V177H1299.34V60.16Z" fill="#333333"/>
</g>
<defs>
<clipPath id="clip0_84_55">
<rect width="1440" height="195" fill="white"/>
</clipPath>
</defs>
</svg>
