<svg width="1941" height="142" viewBox="0 0 1941 142" fill="none" xmlns="http://www.w3.org/2000/svg">
<g clip-path="url(#clip0_91_126)">
<path d="M99.6515 43.28C99.6515 45.7547 99.2675 47.9733 98.4995 49.936C97.8168 51.8987 96.8355 53.648 95.5555 55.184C94.2755 56.72 92.7822 58.0853 91.0755 59.28C89.3688 60.4747 87.4915 61.584 85.4435 62.608C86.3822 62.9493 87.4915 63.504 88.7715 64.272C90.0515 64.9547 91.2888 65.936 92.4835 67.216C93.6782 68.496 94.6595 70.16 95.4275 72.208C96.2808 74.1707 96.7075 76.6027 96.7075 79.504C96.7075 83.344 95.8968 86.8853 94.2755 90.128C92.6542 93.3707 90.2222 96.1867 86.9795 98.576C83.8222 100.88 79.8968 102.715 75.2035 104.08C70.5955 105.36 65.2622 106 59.2035 106H21.1875L38.4675 24.72H72.1315C75.4595 24.72 78.7448 24.976 81.9875 25.488C85.3155 25.9147 88.2595 26.8107 90.8195 28.176C93.4648 29.5413 95.5982 31.4613 97.2195 33.936C98.8408 36.3253 99.6515 39.44 99.6515 43.28ZM64.8355 58.768C66.7128 58.768 68.2915 58.2133 69.5715 57.104C70.9368 55.9947 72.0462 54.6293 72.8995 53.008C73.7528 51.3013 74.3928 49.5093 74.8195 47.632C75.2462 45.6693 75.4595 43.92 75.4595 42.384C75.4595 39.9093 74.8622 37.8187 73.6675 36.112C72.5582 34.32 70.7662 33.424 68.2915 33.424H64.4515L58.9475 58.768H64.8355ZM55.6195 97.936C58.1795 97.936 60.3128 97.2107 62.0195 95.76C63.7262 94.3093 65.1342 92.5173 66.2435 90.384C67.3528 88.2507 68.1208 86.032 68.5475 83.728C69.0595 81.3387 69.3155 79.248 69.3155 77.456C69.3155 74.4693 68.6755 72.1227 67.3955 70.416C66.2008 68.624 64.2382 67.728 61.5075 67.728H56.7715L50.4995 97.936H55.6195ZM111.181 50.96H132.045L133.965 60.56H134.861C136.823 57.488 139.341 54.8853 142.413 52.752C145.485 50.6187 149.538 49.552 154.573 49.552C154.914 49.552 155.426 49.5947 156.109 49.68C156.877 49.68 157.687 49.808 158.541 50.064C159.479 50.2347 160.418 50.5333 161.357 50.96C162.381 51.3013 163.362 51.8133 164.301 52.496L158.669 78.864H144.717C144.546 73.5733 144.077 69.904 143.309 67.856C142.541 65.7227 141.303 64.656 139.597 64.656C138.743 64.656 137.805 64.8693 136.781 65.296C135.842 65.6373 134.861 66.448 133.837 67.728L125.645 106H99.5325L111.181 50.96ZM171.904 55.696C176.256 53.5627 180.693 52.0267 185.216 51.088C189.824 50.064 194.944 49.552 200.576 49.552C206.037 49.552 210.56 49.9787 214.144 50.832C217.728 51.6853 220.586 52.9227 222.72 54.544C224.853 56.1653 226.346 58.0853 227.2 60.304C228.053 62.5227 228.479 65.04 228.479 67.856C228.479 69.4773 228.352 71.2267 228.096 73.104C227.925 74.9813 227.712 76.56 227.456 77.84L221.44 106H200.832L198.528 97.808H197.76C195.029 100.795 191.829 103.099 188.16 104.72C184.576 106.256 180.992 107.024 177.408 107.024C175.36 107.024 173.354 106.725 171.392 106.128C169.429 105.531 167.68 104.635 166.144 103.44C164.608 102.16 163.37 100.581 162.431 98.704C161.493 96.7413 161.023 94.3947 161.023 91.664C161.023 87.2267 162.218 83.728 164.608 81.168C167.082 78.5227 170.282 76.56 174.208 75.28C178.218 73.9147 182.698 73.0613 187.648 72.72C192.682 72.3787 197.717 72.208 202.752 72.208C202.922 71.3547 203.136 70.16 203.392 68.624C203.648 67.0027 203.776 65.5947 203.776 64.4C203.776 62.864 203.349 61.456 202.496 60.176C201.728 58.8107 200.064 58.128 197.504 58.128C194.517 58.128 192.298 59.024 190.848 60.816C189.482 62.5227 188.586 64.6133 188.16 67.088H169.472L171.904 55.696ZM201.344 78.224H199.04C196.565 78.224 194.432 78.5653 192.64 79.248C190.933 79.8453 189.525 80.656 188.416 81.68C187.392 82.704 186.624 83.856 186.112 85.136C185.6 86.416 185.344 87.696 185.344 88.976C185.344 91.024 185.856 92.56 186.88 93.584C187.989 94.608 189.269 95.12 190.72 95.12C192.512 95.12 194.261 94.48 195.968 93.2C197.76 91.92 198.869 90.2133 199.296 88.08L201.344 78.224ZM267.617 59.152C269.409 57.4453 271.414 55.8667 273.633 54.416C275.595 53.2213 277.899 52.112 280.545 51.088C283.19 50.064 286.134 49.552 289.377 49.552C293.814 49.552 297.483 50.704 300.385 53.008C303.286 55.2267 304.737 58.2987 304.737 62.224C304.737 63.3333 304.609 64.6987 304.353 66.32C304.097 67.856 303.798 69.4773 303.457 71.184C303.115 72.8907 302.731 74.64 302.305 76.432C301.963 78.1387 301.665 79.6747 301.409 81.04L296.033 106H270.049L277.089 72.592C277.259 71.4827 277.473 70.3733 277.729 69.264C277.985 68.0693 278.113 67.0027 278.113 66.064C278.113 64.784 277.771 63.76 277.089 62.992C276.491 62.1387 275.553 61.712 274.273 61.712C272.737 61.712 271.243 62.2667 269.793 63.376C268.427 64.4853 267.361 65.424 266.593 66.192L258.145 106H232.032L243.681 50.96H264.545L266.849 59.152H267.617ZM361.561 19.984H387.801L369.497 106H348.761L346.457 97.808H345.561C345.049 98.576 344.238 99.5147 343.129 100.624C342.105 101.648 340.782 102.672 339.161 103.696C337.539 104.635 335.619 105.403 333.401 106C331.182 106.683 328.622 107.024 325.721 107.024C322.734 107.024 320.174 106.597 318.041 105.744C315.993 104.805 314.286 103.568 312.921 102.032C311.641 100.496 310.702 98.6613 310.105 96.528C309.507 94.3093 309.209 91.92 309.209 89.36C309.209 88.2507 309.294 86.5013 309.465 84.112C309.635 81.6373 310.019 78.9493 310.617 76.048C311.299 73.0613 312.238 70.032 313.433 66.96C314.713 63.8027 316.377 60.944 318.425 58.384C320.558 55.824 323.161 53.7333 326.233 52.112C329.305 50.4053 333.017 49.552 337.369 49.552C338.734 49.552 340.185 49.68 341.721 49.936C343.257 50.192 344.707 50.6613 346.073 51.344C347.523 52.0267 348.803 53.008 349.913 54.288C351.022 55.568 351.833 57.232 352.345 59.28H353.241L361.561 19.984ZM345.944 62.096C343.897 62.096 342.19 63.248 340.825 65.552C339.459 67.7707 338.35 70.3733 337.497 73.36C336.643 76.3467 336.003 79.3333 335.577 82.32C335.235 85.3067 335.065 87.5253 335.065 88.976C335.065 90.6827 335.321 92.1333 335.833 93.328C336.345 94.4373 337.326 94.992 338.777 94.992C339.63 94.992 340.441 94.8213 341.208 94.48C342.062 94.0533 342.83 93.584 343.513 93.072C344.281 92.4747 344.921 91.8773 345.433 91.28C345.945 90.6827 346.371 90.1707 346.713 89.744L351.705 66.448C351.107 65.5093 350.297 64.5707 349.273 63.632C348.334 62.608 347.225 62.096 345.944 62.096ZM432.672 94.736C432.672 96.6987 432.245 98.448 431.392 99.984C430.624 101.52 429.557 102.8 428.192 103.824C426.912 104.848 425.418 105.616 423.712 106.128C422.005 106.725 420.213 107.024 418.336 107.024C415.093 107.024 412.32 106.171 410.016 104.464C407.797 102.672 406.688 99.8987 406.688 96.144C406.688 94.1813 407.072 92.432 407.84 90.896C408.608 89.36 409.632 88.08 410.911 87.056C412.192 86.032 413.642 85.264 415.264 84.752C416.97 84.1547 418.72 83.856 420.512 83.856C424.01 83.856 426.912 84.752 429.216 86.544C431.52 88.2507 432.672 90.9813 432.672 94.736Z" fill="black"/>
<path d="M566.327 106H537.911L549.687 50.704L519.351 106H501.943L496.183 48.784L483.895 106H472.375L489.655 24.72H522.295L526.263 70.544L550.839 24.72H583.735L566.327 106ZM589.591 55.696C593.943 53.5627 598.38 52.0267 602.903 51.088C607.511 50.064 612.631 49.552 618.263 49.552C623.724 49.552 628.247 49.9787 631.831 50.832C635.415 51.6853 638.274 52.9227 640.407 54.544C642.54 56.1653 644.034 58.0853 644.887 60.304C645.74 62.5227 646.167 65.04 646.167 67.856C646.167 69.4773 646.039 71.2267 645.783 73.104C645.612 74.9813 645.399 76.56 645.143 77.84L639.127 106H618.519L616.215 97.808H615.447C612.716 100.795 609.516 103.099 605.847 104.72C602.263 106.256 598.679 107.024 595.095 107.024C593.047 107.024 591.042 106.725 589.079 106.128C587.116 105.531 585.367 104.635 583.831 103.44C582.295 102.16 581.058 100.581 580.119 98.704C579.18 96.7413 578.711 94.3947 578.711 91.664C578.711 87.2267 579.906 83.728 582.295 81.168C584.77 78.5227 587.97 76.56 591.895 75.28C595.906 73.9147 600.386 73.0613 605.335 72.72C610.37 72.3787 615.404 72.208 620.439 72.208C620.61 71.3547 620.823 70.16 621.079 68.624C621.335 67.0027 621.463 65.5947 621.463 64.4C621.463 62.864 621.036 61.456 620.183 60.176C619.415 58.8107 617.751 58.128 615.191 58.128C612.204 58.128 609.986 59.024 608.535 60.816C607.17 62.5227 606.274 64.6133 605.847 67.088H587.159L589.591 55.696ZM619.031 78.224H616.727C614.252 78.224 612.119 78.5653 610.327 79.248C608.62 79.8453 607.212 80.656 606.103 81.68C605.079 82.704 604.311 83.856 603.799 85.136C603.287 86.416 603.031 87.696 603.031 88.976C603.031 91.024 603.543 92.56 604.567 93.584C605.676 94.608 606.956 95.12 608.407 95.12C610.199 95.12 611.948 94.48 613.655 93.2C615.447 91.92 616.556 90.2133 616.983 88.08L619.031 78.224ZM661.368 50.96H682.232L684.152 60.56H685.048C687.011 57.488 689.528 54.8853 692.6 52.752C695.672 50.6187 699.725 49.552 704.76 49.552C705.101 49.552 705.613 49.5947 706.296 49.68C707.064 49.68 707.875 49.808 708.728 50.064C709.667 50.2347 710.605 50.5333 711.544 50.96C712.568 51.3013 713.549 51.8133 714.488 52.496L708.856 78.864H694.904C694.733 73.5733 694.264 69.904 693.496 67.856C692.728 65.7227 691.491 64.656 689.784 64.656C688.931 64.656 687.992 64.8693 686.968 65.296C686.029 65.6373 685.048 66.448 684.024 67.728L675.832 106H649.72L661.368 50.96ZM744.491 74.256L774.315 50.96H791.211L765.739 71.824L784.811 106H756.139L743.083 80.272L737.707 106H711.595L729.771 19.984H756.011L744.491 74.256ZM813.904 80.272C813.563 82.1493 813.307 83.9413 813.136 85.648C813.051 87.3547 813.008 88.8907 813.008 90.256C813.008 91.024 813.051 91.8773 813.136 92.816C813.221 93.7547 813.392 94.6507 813.648 95.504C813.989 96.272 814.416 96.9547 814.928 97.552C815.525 98.064 816.336 98.32 817.36 98.32C818.128 98.32 818.981 98.064 819.92 97.552C820.944 97.04 821.925 96.3147 822.864 95.376C823.888 94.4373 824.827 93.2853 825.68 91.92C826.619 90.5547 827.344 89.0187 827.856 87.312H848.848L845.52 101.008C843.813 102.117 841.851 103.056 839.632 103.824C837.413 104.592 835.067 105.232 832.592 105.744C830.117 106.171 827.6 106.469 825.04 106.64C822.48 106.896 820.048 107.024 817.744 107.024C813.477 107.024 809.509 106.64 805.84 105.872C802.171 105.104 798.971 103.781 796.24 101.904C793.509 100.027 791.333 97.552 789.712 94.48C788.176 91.3227 787.408 87.44 787.408 82.832C787.408 78.6507 788.048 74.5547 789.328 70.544C790.693 66.5333 792.912 62.992 795.984 59.92C799.141 56.7627 803.323 54.2453 808.528 52.368C813.819 50.4907 820.389 49.552 828.24 49.552C836.773 49.552 843.173 50.8747 847.44 53.52C851.792 56.1653 853.968 60.304 853.968 65.936C853.968 68.24 853.627 70.7573 852.944 73.488C852.261 76.1333 851.237 78.3947 849.872 80.272H813.904ZM830.928 65.04C830.928 62.3947 830.501 60.6027 829.648 59.664C828.795 58.7253 827.771 58.256 826.576 58.256C825.211 58.256 823.931 58.7253 822.736 59.664C821.627 60.5173 820.603 61.712 819.664 63.248C818.725 64.6987 817.872 66.4053 817.104 68.368C816.336 70.2453 815.696 72.2507 815.184 74.384H829.776C829.947 73.36 830.117 72.2933 830.288 71.184C830.459 70.2453 830.587 69.2213 830.672 68.112C830.843 67.0027 830.928 65.9787 830.928 65.04ZM861.263 50.96C864.42 50.2773 867.194 49.5093 869.583 48.656C871.972 47.8027 874.148 46.736 876.111 45.456C878.159 44.176 880.079 42.5973 881.871 40.72C883.748 38.8427 885.754 36.5387 887.887 33.808H901.071L897.359 50.96H907.343L905.679 59.536H895.567L890.319 84.496C889.892 86.4587 889.551 88.208 889.295 89.744C889.039 91.28 888.911 92.4747 888.911 93.328C888.911 95.0347 889.508 96.1013 890.703 96.528C891.983 96.9547 894.33 97.168 897.743 97.168L895.823 106C895.226 106.171 894.287 106.299 893.007 106.384C891.812 106.469 890.447 106.555 888.911 106.64C887.46 106.811 885.924 106.896 884.303 106.896C882.767 106.981 881.402 107.024 880.207 107.024C878.074 107.024 875.983 106.853 873.935 106.512C871.887 106.256 870.052 105.701 868.431 104.848C866.81 103.909 865.487 102.587 864.463 100.88C863.524 99.1733 863.055 96.8693 863.055 93.968C863.055 92.944 863.098 91.664 863.183 90.128C863.354 88.592 863.652 86.8853 864.079 85.008L869.455 59.536H859.471L861.263 50.96ZM930.204 106H904.22L915.868 50.96H942.108L930.204 106ZM945.436 34.192C945.436 36.1547 945.009 37.8613 944.156 39.312C943.388 40.7627 942.321 42 940.956 43.024C939.676 44.048 938.183 44.816 936.476 45.328C934.769 45.84 933.02 46.096 931.228 46.096C927.815 46.096 924.956 45.2853 922.652 43.664C920.348 42.0427 919.196 39.4827 919.196 35.984C919.196 34.1067 919.58 32.4427 920.348 30.992C921.116 29.456 922.14 28.2187 923.42 27.28C924.785 26.256 926.321 25.488 928.028 24.976C929.82 24.464 931.655 24.208 933.532 24.208C936.86 24.208 939.676 25.0187 941.98 26.64C944.284 28.2613 945.436 30.7787 945.436 34.192ZM977.304 59.152C979.096 57.4453 981.101 55.8667 983.32 54.416C985.283 53.2213 987.587 52.112 990.232 51.088C992.877 50.064 995.821 49.552 999.064 49.552C1003.5 49.552 1007.17 50.704 1010.07 53.008C1012.97 55.2267 1014.42 58.2987 1014.42 62.224C1014.42 63.3333 1014.3 64.6987 1014.04 66.32C1013.78 67.856 1013.49 69.4773 1013.14 71.184C1012.8 72.8907 1012.42 74.64 1011.99 76.432C1011.65 78.1387 1011.35 79.6747 1011.1 81.04L1005.72 106H979.736L986.776 72.592C986.947 71.4827 987.16 70.3733 987.416 69.264C987.672 68.0693 987.8 67.0027 987.8 66.064C987.8 64.784 987.459 63.76 986.776 62.992C986.179 62.1387 985.24 61.712 983.96 61.712C982.424 61.712 980.931 62.2667 979.48 63.376C978.115 64.4853 977.048 65.424 976.28 66.192L967.832 106H941.72L953.368 50.96H974.232L976.536 59.152H977.304ZM1070.22 50.96H1090.96L1080.46 100.752C1079.7 104.592 1078.42 108.133 1076.62 111.376C1074.83 114.619 1072.31 117.435 1069.07 119.824C1065.91 122.213 1061.9 124.091 1057.04 125.456C1052.26 126.821 1046.42 127.504 1039.5 127.504C1038.22 127.504 1036.69 127.461 1034.9 127.376C1033.1 127.376 1031.27 127.333 1029.39 127.248C1027.51 127.248 1025.72 127.205 1024.02 127.12C1022.31 127.035 1020.94 126.949 1019.92 126.864L1022.35 117.648C1025.08 118.075 1027.86 118.288 1030.67 118.288C1033.57 118.373 1036.05 118.416 1038.1 118.416C1040.66 118.416 1042.79 118.16 1044.5 117.648C1046.29 117.221 1047.74 116.496 1048.85 115.472C1050.04 114.448 1050.98 113.083 1051.66 111.376C1052.43 109.669 1053.03 107.579 1053.46 105.104L1054.99 96.784H1054.1C1053.58 97.552 1052.82 98.4907 1051.79 99.6C1050.85 100.624 1049.62 101.648 1048.08 102.672C1046.54 103.611 1044.71 104.421 1042.58 105.104C1040.53 105.701 1038.18 106 1035.54 106C1032.55 106 1029.99 105.573 1027.86 104.72C1025.81 103.781 1024.14 102.544 1022.86 101.008C1021.58 99.3867 1020.65 97.5093 1020.05 95.376C1019.45 93.1573 1019.15 90.768 1019.15 88.208C1019.15 87.0987 1019.24 85.392 1019.41 83.088C1019.58 80.784 1019.96 78.1813 1020.56 75.28C1021.24 72.3787 1022.18 69.4347 1023.38 66.448C1024.66 63.376 1026.32 60.6027 1028.37 58.128C1030.5 55.6533 1033.1 53.6053 1036.18 51.984C1039.33 50.3627 1043.13 49.552 1047.57 49.552C1048.93 49.552 1050.43 49.68 1052.05 49.936C1053.67 50.192 1055.25 50.6613 1056.78 51.344C1058.32 52.0267 1059.69 53.008 1060.88 54.288C1062.07 55.568 1063.01 57.232 1063.7 59.28H1064.46L1070.22 50.96ZM1055.89 62.096C1053.84 62.096 1052.13 63.2053 1050.77 65.424C1049.4 67.5573 1048.29 70.0747 1047.44 72.976C1046.59 75.8773 1045.95 78.7787 1045.52 81.68C1045.18 84.496 1045.01 86.5867 1045.01 87.952C1045.01 89.6587 1045.26 91.1093 1045.78 92.304C1046.37 93.4133 1047.4 93.968 1048.85 93.968C1049.7 93.968 1050.51 93.7547 1051.28 93.328C1052.13 92.9013 1052.9 92.432 1053.58 91.92C1054.35 91.3227 1054.99 90.7253 1055.5 90.128C1056.1 89.5307 1056.53 89.0613 1056.78 88.72L1061.52 66.32C1060.84 65.3813 1060.03 64.4427 1059.09 63.504C1058.23 62.5653 1057.17 62.096 1055.89 62.096ZM1142.48 94.736C1142.48 96.6987 1142.06 98.448 1141.2 99.984C1140.44 101.52 1139.37 102.8 1138 103.824C1136.72 104.848 1135.23 105.616 1133.52 106.128C1131.82 106.725 1130.03 107.024 1128.15 107.024C1124.91 107.024 1122.13 106.171 1119.83 104.464C1117.61 102.672 1116.5 99.8987 1116.5 96.144C1116.5 94.1813 1116.88 92.432 1117.65 90.896C1118.42 89.36 1119.44 88.08 1120.72 87.056C1122 86.032 1123.45 85.264 1125.08 84.752C1126.78 84.1547 1128.53 83.856 1130.32 83.856C1133.82 83.856 1136.72 84.752 1139.03 86.544C1141.33 88.2507 1142.48 90.9813 1142.48 94.736Z" fill="black"/>
<path d="M1183.31 106L1200.59 24.72H1235.02C1240.32 24.72 1244.92 25.2747 1248.85 26.384C1252.86 27.408 1256.14 29.1573 1258.7 31.632C1261.35 34.1067 1263.31 37.3493 1264.59 41.36C1265.96 45.3707 1266.64 50.2773 1266.64 56.08C1266.64 62.3093 1265.83 68.4107 1264.21 74.384C1262.67 80.3573 1260.07 85.6907 1256.4 90.384C1252.73 95.0773 1247.91 98.8747 1241.94 101.776C1236.05 104.592 1228.75 106 1220.05 106H1183.31ZM1218.38 97.04C1221.2 97.04 1223.68 95.888 1225.81 93.584C1228.03 91.1947 1229.9 88.208 1231.44 84.624C1233.06 80.9547 1234.38 76.944 1235.41 72.592C1236.52 68.1547 1237.37 63.888 1237.97 59.792C1238.65 55.696 1239.12 52.0267 1239.38 48.784C1239.72 45.5413 1239.89 43.2373 1239.89 41.872C1239.89 39.2267 1239.33 37.1787 1238.22 35.728C1237.2 34.192 1235.37 33.424 1232.72 33.424H1226.58L1212.88 97.04H1218.38ZM1292.77 106H1266.78L1278.43 50.96H1304.67L1292.77 106ZM1308 34.192C1308 36.1547 1307.57 37.8613 1306.72 39.312C1305.95 40.7627 1304.88 42 1303.52 43.024C1302.24 44.048 1300.75 44.816 1299.04 45.328C1297.33 45.84 1295.58 46.096 1293.79 46.096C1290.38 46.096 1287.52 45.2853 1285.21 43.664C1282.91 42.0427 1281.76 39.4827 1281.76 35.984C1281.76 34.1067 1282.14 32.4427 1282.91 30.992C1283.68 29.456 1284.7 28.2187 1285.98 27.28C1287.35 26.256 1288.88 25.488 1290.59 24.976C1292.38 24.464 1294.22 24.208 1296.09 24.208C1299.42 24.208 1302.24 25.0187 1304.54 26.64C1306.85 28.2613 1308 30.7787 1308 34.192ZM1357.79 50.96H1378.52L1368.03 100.752C1367.26 104.592 1365.98 108.133 1364.19 111.376C1362.39 114.619 1359.88 117.435 1356.63 119.824C1353.48 122.213 1349.47 124.091 1344.6 125.456C1339.82 126.821 1333.98 127.504 1327.07 127.504C1325.79 127.504 1324.25 127.461 1322.46 127.376C1320.67 127.376 1318.83 127.333 1316.95 127.248C1315.08 127.248 1313.29 127.205 1311.58 127.12C1309.87 127.035 1308.51 126.949 1307.48 126.864L1309.91 117.648C1312.65 118.075 1315.42 118.288 1318.23 118.288C1321.14 118.373 1323.61 118.416 1325.66 118.416C1328.22 118.416 1330.35 118.16 1332.06 117.648C1333.85 117.221 1335.3 116.496 1336.41 115.472C1337.61 114.448 1338.54 113.083 1339.23 111.376C1339.99 109.669 1340.59 107.579 1341.02 105.104L1342.55 96.784H1341.66C1341.15 97.552 1340.38 98.4907 1339.35 99.6C1338.42 100.624 1337.18 101.648 1335.64 102.672C1334.11 103.611 1332.27 104.421 1330.14 105.104C1328.09 105.701 1325.74 106 1323.1 106C1320.11 106 1317.55 105.573 1315.42 104.72C1313.37 103.781 1311.71 102.544 1310.43 101.008C1309.15 99.3867 1308.21 97.5093 1307.61 95.376C1307.01 93.1573 1306.71 90.768 1306.71 88.208C1306.71 87.0987 1306.8 85.392 1306.97 83.088C1307.14 80.784 1307.53 78.1813 1308.12 75.28C1308.81 72.3787 1309.74 69.4347 1310.94 66.448C1312.22 63.376 1313.88 60.6027 1315.93 58.128C1318.06 55.6533 1320.67 53.6053 1323.74 51.984C1326.9 50.3627 1330.69 49.552 1335.13 49.552C1336.5 49.552 1337.99 49.68 1339.61 49.936C1341.23 50.192 1342.81 50.6613 1344.35 51.344C1345.88 52.0267 1347.25 53.008 1348.44 54.288C1349.64 55.568 1350.58 57.232 1351.26 59.28H1352.03L1357.79 50.96ZM1343.45 62.096C1341.4 62.096 1339.7 63.2053 1338.33 65.424C1336.97 67.5573 1335.86 70.0747 1335 72.976C1334.15 75.8773 1333.51 78.7787 1333.08 81.68C1332.74 84.496 1332.57 86.5867 1332.57 87.952C1332.57 89.6587 1332.83 91.1093 1333.34 92.304C1333.94 93.4133 1334.96 93.968 1336.41 93.968C1337.26 93.968 1338.07 93.7547 1338.84 93.328C1339.7 92.9013 1340.46 92.432 1341.15 91.92C1341.91 91.3227 1342.55 90.7253 1343.07 90.128C1343.66 89.5307 1344.09 89.0613 1344.35 88.72L1349.08 66.32C1348.4 65.3813 1347.59 64.4427 1346.65 63.504C1345.8 62.5653 1344.73 62.096 1343.45 62.096ZM1404.27 106H1378.28L1389.93 50.96H1416.17L1404.27 106ZM1419.5 34.192C1419.5 36.1547 1419.07 37.8613 1418.22 39.312C1417.45 40.7627 1416.38 42 1415.02 43.024C1413.74 44.048 1412.25 44.816 1410.54 45.328C1408.83 45.84 1407.08 46.096 1405.29 46.096C1401.88 46.096 1399.02 45.2853 1396.71 43.664C1394.41 42.0427 1393.26 39.4827 1393.26 35.984C1393.26 34.1067 1393.64 32.4427 1394.41 30.992C1395.18 29.456 1396.2 28.2187 1397.48 27.28C1398.85 26.256 1400.38 25.488 1402.09 24.976C1403.88 24.464 1405.72 24.208 1407.59 24.208C1410.92 24.208 1413.74 25.0187 1416.04 26.64C1418.35 28.2613 1419.5 30.7787 1419.5 34.192ZM1422.95 50.96C1426.11 50.2773 1428.88 49.5093 1431.27 48.656C1433.66 47.8027 1435.84 46.736 1437.8 45.456C1439.85 44.176 1441.77 42.5973 1443.56 40.72C1445.44 38.8427 1447.44 36.5387 1449.57 33.808H1462.76L1459.05 50.96H1469.03L1467.37 59.536H1457.25L1452.01 84.496C1451.58 86.4587 1451.24 88.208 1450.98 89.744C1450.73 91.28 1450.6 92.4747 1450.6 93.328C1450.6 95.0347 1451.2 96.1013 1452.39 96.528C1453.67 96.9547 1456.02 97.168 1459.43 97.168L1457.51 106C1456.91 106.171 1455.97 106.299 1454.69 106.384C1453.5 106.469 1452.13 106.555 1450.6 106.64C1449.15 106.811 1447.61 106.896 1445.99 106.896C1444.45 106.981 1443.09 107.024 1441.89 107.024C1439.76 107.024 1437.67 106.853 1435.62 106.512C1433.57 106.256 1431.74 105.701 1430.12 104.848C1428.5 103.909 1427.17 102.587 1426.15 100.88C1425.21 99.1733 1424.74 96.8693 1424.74 93.968C1424.74 92.944 1424.79 91.664 1424.87 90.128C1425.04 88.592 1425.34 86.8853 1425.77 85.008L1431.14 59.536H1421.16L1422.95 50.96ZM1476.4 55.696C1480.76 53.5627 1485.19 52.0267 1489.72 51.088C1494.32 50.064 1499.44 49.552 1505.08 49.552C1510.54 49.552 1515.06 49.9787 1518.64 50.832C1522.23 51.6853 1525.09 52.9227 1527.22 54.544C1529.35 56.1653 1530.85 58.0853 1531.7 60.304C1532.55 62.5227 1532.98 65.04 1532.98 67.856C1532.98 69.4773 1532.85 71.2267 1532.6 73.104C1532.42 74.9813 1532.21 76.56 1531.96 77.84L1525.94 106H1505.33L1503.03 97.808H1502.26C1499.53 100.795 1496.33 103.099 1492.66 104.72C1489.08 106.256 1485.49 107.024 1481.91 107.024C1479.86 107.024 1477.85 106.725 1475.89 106.128C1473.93 105.531 1472.18 104.635 1470.64 103.44C1469.11 102.16 1467.87 100.581 1466.93 98.704C1465.99 96.7413 1465.52 94.3947 1465.52 91.664C1465.52 87.2267 1466.72 83.728 1469.11 81.168C1471.58 78.5227 1474.78 76.56 1478.71 75.28C1482.72 73.9147 1487.2 73.0613 1492.15 72.72C1497.18 72.3787 1502.22 72.208 1507.25 72.208C1507.42 71.3547 1507.64 70.16 1507.89 68.624C1508.15 67.0027 1508.28 65.5947 1508.28 64.4C1508.28 62.864 1507.85 61.456 1507 60.176C1506.23 58.8107 1504.56 58.128 1502 58.128C1499.02 58.128 1496.8 59.024 1495.35 60.816C1493.98 62.5227 1493.09 64.6133 1492.66 67.088H1473.97L1476.4 55.696ZM1505.84 78.224H1503.54C1501.06 78.224 1498.93 78.5653 1497.14 79.248C1495.43 79.8453 1494.02 80.656 1492.92 81.68C1491.89 82.704 1491.12 83.856 1490.61 85.136C1490.1 86.416 1489.84 87.696 1489.84 88.976C1489.84 91.024 1490.36 92.56 1491.38 93.584C1492.49 94.608 1493.77 95.12 1495.22 95.12C1497.01 95.12 1498.76 94.48 1500.47 93.2C1502.26 91.92 1503.37 90.2133 1503.8 88.08L1505.84 78.224ZM1562.64 106H1536.53L1554.71 19.984H1580.95L1562.64 106ZM1672 99.088C1669.87 100.112 1667.65 101.136 1665.35 102.16C1663.13 103.099 1660.74 103.952 1658.18 104.72C1655.62 105.403 1652.8 105.957 1649.73 106.384C1646.75 106.811 1643.46 107.024 1639.88 107.024C1628.44 107.024 1619.61 104.464 1613.38 99.344C1607.24 94.224 1604.16 85.6907 1604.16 73.744C1604.16 66.832 1605.23 60.3467 1607.36 54.288C1609.5 48.144 1612.66 42.8107 1616.84 38.288C1621.02 33.68 1626.18 30.0533 1632.32 27.408C1638.47 24.7627 1645.51 23.44 1653.44 23.44C1657.2 23.44 1660.61 23.696 1663.68 24.208C1666.84 24.72 1669.66 25.4027 1672.13 26.256C1674.69 27.024 1676.95 27.8773 1678.92 28.816C1680.96 29.7547 1682.8 30.6507 1684.42 31.504L1679.81 55.312H1656.77C1656.86 54.4587 1656.94 53.3493 1657.03 51.984C1657.2 50.6187 1657.33 49.2533 1657.41 47.888C1657.5 46.4373 1657.58 45.0293 1657.67 43.664C1657.75 42.2987 1657.8 41.1467 1657.8 40.208C1657.8 39.5253 1657.75 38.7573 1657.67 37.904C1657.58 36.9653 1657.37 36.0693 1657.03 35.216C1656.69 34.3627 1656.13 33.68 1655.36 33.168C1654.68 32.5707 1653.74 32.272 1652.55 32.272C1650.33 32.272 1648.28 33.2107 1646.4 35.088C1644.61 36.88 1642.99 39.312 1641.54 42.384C1640.09 45.3707 1638.81 48.784 1637.7 52.624C1636.59 56.464 1635.65 60.3893 1634.88 64.4C1634.2 68.3253 1633.65 72.208 1633.22 76.048C1632.88 79.888 1632.71 83.2587 1632.71 86.16C1632.71 87.0133 1632.75 88.08 1632.84 89.36C1632.92 90.64 1633.18 91.8773 1633.6 93.072C1634.03 94.2667 1634.67 95.2907 1635.52 96.144C1636.46 96.9973 1637.7 97.424 1639.24 97.424C1641.88 97.424 1644.44 95.8027 1646.92 92.56C1649.39 89.232 1651.57 83.344 1653.44 74.896H1677.12L1672 99.088ZM1691.93 50.96H1712.79L1714.71 60.56H1715.61C1717.57 57.488 1720.09 54.8853 1723.16 52.752C1726.23 50.6187 1730.29 49.552 1735.32 49.552C1735.66 49.552 1736.18 49.5947 1736.86 49.68C1737.63 49.68 1738.44 49.808 1739.29 50.064C1740.23 50.2347 1741.17 50.5333 1742.11 50.96C1743.13 51.3013 1744.11 51.8133 1745.05 52.496L1739.42 78.864H1725.47C1725.3 73.5733 1724.83 69.904 1724.06 67.856C1723.29 65.7227 1722.05 64.656 1720.35 64.656C1719.49 64.656 1718.55 64.8693 1717.53 65.296C1716.59 65.6373 1715.61 66.448 1714.59 67.728L1706.39 106H1680.28L1691.93 50.96ZM1752.65 55.696C1757.01 53.5627 1761.44 52.0267 1765.97 51.088C1770.57 50.064 1775.69 49.552 1781.33 49.552C1786.79 49.552 1791.31 49.9787 1794.89 50.832C1798.48 51.6853 1801.34 52.9227 1803.47 54.544C1805.6 56.1653 1807.1 58.0853 1807.95 60.304C1808.8 62.5227 1809.23 65.04 1809.23 67.856C1809.23 69.4773 1809.1 71.2267 1808.85 73.104C1808.67 74.9813 1808.46 76.56 1808.21 77.84L1802.19 106H1781.58L1779.28 97.808H1778.51C1775.78 100.795 1772.58 103.099 1768.91 104.72C1765.33 106.256 1761.74 107.024 1758.16 107.024C1756.11 107.024 1754.1 106.725 1752.14 106.128C1750.18 105.531 1748.43 104.635 1746.89 103.44C1745.36 102.16 1744.12 100.581 1743.18 98.704C1742.24 96.7413 1741.77 94.3947 1741.77 91.664C1741.77 87.2267 1742.97 83.728 1745.36 81.168C1747.83 78.5227 1751.03 76.56 1754.96 75.28C1758.97 73.9147 1763.45 73.0613 1768.4 72.72C1773.43 72.3787 1778.47 72.208 1783.5 72.208C1783.67 71.3547 1783.89 70.16 1784.14 68.624C1784.4 67.0027 1784.53 65.5947 1784.53 64.4C1784.53 62.864 1784.1 61.456 1783.25 60.176C1782.48 58.8107 1780.81 58.128 1778.25 58.128C1775.27 58.128 1773.05 59.024 1771.6 60.816C1770.23 62.5227 1769.34 64.6133 1768.91 67.088H1750.22L1752.65 55.696ZM1782.09 78.224H1779.79C1777.31 78.224 1775.18 78.5653 1773.39 79.248C1771.68 79.8453 1770.27 80.656 1769.17 81.68C1768.14 82.704 1767.37 83.856 1766.86 85.136C1766.35 86.416 1766.09 87.696 1766.09 88.976C1766.09 91.024 1766.61 92.56 1767.63 93.584C1768.74 94.608 1770.02 95.12 1771.47 95.12C1773.26 95.12 1775.01 94.48 1776.72 93.2C1778.51 91.92 1779.62 90.2133 1780.05 88.08L1782.09 78.224ZM1842.77 106H1816.66L1826.52 59.536H1816.53L1818.45 50.96H1828.31L1829.46 45.712C1830.57 40.592 1832.19 36.2827 1834.33 32.784C1836.46 29.2 1838.98 26.2987 1841.88 24.08C1844.86 21.8613 1848.23 20.2827 1851.99 19.344C1855.74 18.32 1859.75 17.808 1864.02 17.808C1866.67 17.808 1869.48 17.9787 1872.47 18.32C1875.46 18.6613 1878.57 19.216 1881.81 19.984L1879.77 30.224C1877.89 29.968 1875.88 29.7973 1873.75 29.712C1871.62 29.5413 1869.91 29.456 1868.63 29.456C1866.92 29.456 1865.43 29.584 1864.15 29.84C1862.95 30.096 1861.89 30.608 1860.95 31.376C1860.01 32.0587 1859.2 33.04 1858.52 34.32C1857.83 35.6 1857.28 37.3067 1856.85 39.44L1854.42 50.96H1860.44C1863.68 50.96 1866.5 50.576 1868.89 49.808C1871.27 49.04 1873.45 47.9307 1875.41 46.48C1877.38 45.0293 1879.25 43.2373 1881.05 41.104C1882.92 38.9707 1884.93 36.5387 1887.06 33.808H1900.25L1896.53 50.96H1906.52L1904.85 59.536H1894.74L1889.49 84.496C1889.07 86.4587 1888.73 88.208 1888.47 89.744C1888.21 91.28 1888.09 92.4747 1888.09 93.328C1888.09 95.0347 1888.68 96.1013 1889.88 96.528C1891.16 96.9547 1893.5 97.168 1896.92 97.168L1895 106C1894.4 106.171 1893.46 106.299 1892.18 106.384C1890.99 106.469 1889.62 106.555 1888.09 106.64C1886.63 106.811 1885.1 106.896 1883.48 106.896C1881.94 106.981 1880.58 107.024 1879.38 107.024C1877.25 107.024 1875.16 106.853 1873.11 106.512C1871.06 106.256 1869.23 105.701 1867.61 104.848C1865.98 103.909 1864.66 102.587 1863.64 100.88C1862.7 99.1733 1862.23 96.8693 1862.23 93.968C1862.23 92.944 1862.27 91.664 1862.36 90.128C1862.53 88.592 1862.83 86.8853 1863.25 85.008L1868.63 59.536H1852.63L1842.77 106Z" fill="black"/>
</g>
<defs>
<clipPath id="clip0_91_126">
<rect width="1941" height="142" fill="white"/>
</clipPath>
</defs>
</svg>
